<?xml version="1.0" encoding="UTF-8"?>
<svg width="752pt" height="752pt" version="1.1" viewBox="0 0 752 752" xmlns="http://www.w3.org/2000/svg">
 <defs>
  <clipPath id="a">
   <path d="m141 141h471.79v471h-471.79z"/>
  </clipPath>
 </defs>
 <g clip-path="url(#a)">
  <path d="m605.62 141.36h-459.23c-2.8711 0-5.0234 2.1523-5.0234 5.0234v459.23c0 2.8711 2.1523 5.7422 5.7422 5.7422h459.23c2.8711 0 5.7422-2.1523 5.7422-5.7422l-0.003906-459.23c-0.71875-2.8711-3.5859-5.0234-6.457-5.0234zm-5.0234 10.762v91.848h-448.47v-91.848zm-448.47 448.47v-345.86h448.47v345.86z" fill="#000100"/>
 </g>
 <path d="m189.44 223.88h43.055c2.8711 0 5.7422-2.1523 5.7422-5.7422v-43.055c0-2.8711-2.1523-5.7422-5.7422-5.7422l-43.055 0.003906c-2.8711 0-5.7422 2.1523-5.7422 5.7422v43.055c0.72266 3.5859 2.875 5.7383 5.7422 5.7383zm5.7422-43.055h32.289v32.289h-32.289z" fill="#000100"/>
 <path d="m273.39 223.88h43.055c2.8711 0 5.7422-2.1523 5.7422-5.7422v-43.055c0-2.8711-2.1523-5.7422-5.7422-5.7422h-43.055c-2.8711 0-5.7422 2.1523-5.7422 5.7422v43.055c0.003906 3.5898 2.875 5.7422 5.7422 5.7422zm5.0234-43.055h32.289v32.289h-32.289z" fill="#000100"/>
 <path d="m375.29 202.36h187.28c2.8711 0 5.7422-2.1523 5.7422-5.7422 0-3.5859-2.8711-5.0195-5.7422-5.0195h-187.28c-2.8711 0-5.7422 2.1523-5.7422 5.7422 0 3.5859 2.8711 5.0195 5.7422 5.0195z" fill="#000100"/>
 <path d="m332.23 388.92c2.1523 2.1523 5.7422 2.1523 7.8945 0 2.1523-2.1523 2.1523-5.7422 0-7.8945l-37.312-37.312 37.312-37.312c2.1523-2.1523 2.1523-5.7422 0-7.8945s-5.7422-2.1523-7.8945 0l-41.617 41.621c-2.1523 2.1523-2.1523 5.7422 0 7.8945z" fill="#000100"/>
 <path d="m412.6 388.92c2.1523 2.1523 5.7422 2.1523 7.8945 0l40.898-40.898c2.1523-2.1523 2.1523-5.7422 0-7.8945l-40.898-40.898c-2.1523-2.1523-5.7422-2.1523-7.8945 0-2.1523 2.1523-2.1523 5.7422 0 7.8945l37.312 37.312-37.312 37.312c-2.1523 1.4297-2.1523 5.0195 0 7.1719z" fill="#000100"/>
 <path d="m358.06 404.7c2.8711 0.71875 5.7422-0.71875 6.457-3.5859l33.727-112.66c0.71875-2.8711-0.71875-5.7422-3.5859-6.457-2.8711-0.71875-5.7422 0.71875-6.457 3.5859l-33.727 112.66c-1.4375 2.8711 0.71484 5.7383 3.5859 6.457z" fill="#000100"/>
 <path d="m196.61 461.39h66.73c2.8711 0 5.7422-2.1523 5.7422-5.7422 0-3.5859-2.1523-5.7422-5.7422-5.7422l-66.73 0.003906c-2.8711 0-5.7422 2.1523-5.7422 5.7422 0.003906 3.5859 2.875 5.7383 5.7422 5.7383z" fill="#000100"/>
 <path d="m292.77 461.39h23.68c2.8711 0 5.7422-2.1523 5.7422-5.7422 0-3.5859-2.1523-5.7422-5.7422-5.7422h-23.68c-2.8711 0-5.7422 2.1523-5.7422 5.7422 0.003906 3.5898 2.8711 5.7422 5.7422 5.7422z" fill="#000100"/>
 <path d="m345.86 461.39h42.336c2.8711 0 5.7422-2.1523 5.7422-5.7422 0-3.5859-2.1523-5.7422-5.7422-5.7422h-42.336c-2.8711 0-5.7422 2.1523-5.7422 5.7422 0.003906 3.5898 2.875 5.7422 5.7422 5.7422z" fill="#000100"/>
 <path d="m411.88 456.37c0 2.8711 2.1523 5.7422 5.7422 5.7422h73.191c2.8711 0 5.7422-2.1523 5.7422-5.7422 0-3.5859-2.1523-5.7422-5.7422-5.7422h-73.91c-2.8711 0-5.0234 2.8711-5.0234 5.7422z" fill="#000100"/>
 <path d="m555.39 450.62h-35.879c-2.8711 0-5.7422 2.1523-5.7422 5.7422 0 3.5859 2.1523 5.7422 5.7422 5.7422h35.879c2.8711 0 5.7422-2.1523 5.7422-5.7422 0-3.5898-2.8711-5.7422-5.7422-5.7422z" fill="#000100"/>
 <path d="m555.39 500.14h-66.73c-2.8711 0-5.7422 2.1523-5.7422 5.7422 0 3.5859 2.1523 5.7422 5.7422 5.7422l66.73-0.003906c2.8711 0 5.7422-2.1523 5.7422-5.7422 0-3.5859-2.8711-5.7383-5.7422-5.7383z" fill="#000100"/>
 <path d="m435.56 500.14c-2.8711 0-5.7422 2.1523-5.7422 5.7422 0 3.5859 2.1523 5.7422 5.7422 5.7422h23.68c2.8711 0 5.7422-2.1523 5.7422-5.7422 0-3.5859-2.1523-5.7422-5.7422-5.7422z" fill="#000100"/>
 <path d="m406.14 500.14h-42.336c-2.8711 0-5.7422 2.1523-5.7422 5.7422 0 3.5859 2.1523 5.7422 5.7422 5.7422h42.336c2.8711 0 5.7422-2.1523 5.7422-5.7422s-2.8711-5.7422-5.7422-5.7422z" fill="#000100"/>
 <path d="m335.1 510.9c2.8711 0 5.7422-2.1523 5.7422-5.7422 0-3.5859-2.1523-5.7422-5.7422-5.7422l-73.191 0.003907c-2.8711 0-5.7422 2.1523-5.7422 5.7422 0 3.5859 2.1523 5.7422 5.7422 5.7422z" fill="#000100"/>
 <path d="m196.61 510.9h35.879c2.8711 0 5.7422-2.1523 5.7422-5.7422 0-3.5859-2.1523-5.7422-5.7422-5.7422l-35.879 0.003907c-2.8711 0-5.7422 2.1523-5.7422 5.7422 0.003906 3.5859 2.875 5.7383 5.7422 5.7383z" fill="#000100"/>
 <path d="m234.64 549.65h-38.031c-2.8711 0-5.7422 2.1523-5.7422 5.7422 0 3.5859 2.1523 5.7422 5.7422 5.7422h38.031c2.8711 0 5.7422-2.1523 5.7422-5.7422s-2.8711-5.7422-5.7422-5.7422z" fill="#000100"/>
 <path d="m302.09 549.65h-38.031c-2.8711 0-5.7422 2.1523-5.7422 5.7422 0 3.5859 2.1523 5.7422 5.7422 5.7422h38.031c2.8711 0 5.7422-2.1523 5.7422-5.7422s-2.8711-5.7422-5.7422-5.7422z" fill="#000100"/>
 <path d="m387.48 549.65h-56.688c-2.8711 0-5.7422 2.1523-5.7422 5.7422 0 3.5859 2.1523 5.7422 5.7422 5.7422h56.688c2.8711 0 5.7422-2.1523 5.7422-5.7422s-2.8711-5.7422-5.7422-5.7422z" fill="#000100"/>
 <path d="m461.39 549.65h-44.488c-2.8711 0-5.7422 2.1523-5.7422 5.7422 0 3.5859 2.1523 5.7422 5.7422 5.7422h44.488c2.8711 0 5.7422-2.1523 5.7422-5.7422-0.003906-3.5898-2.875-5.7422-5.7422-5.7422z" fill="#000100"/>
 <path d="m555.39 549.65h-64.578c-2.8711 0-5.7422 2.1523-5.7422 5.7422 0 3.5859 2.1523 5.7422 5.7422 5.7422h64.578c2.8711 0 5.7422-2.1523 5.7422-5.7422s-2.8711-5.7422-5.7422-5.7422z" fill="#000100"/>
</svg>
