<?xml version="1.0" encoding="UTF-8"?>
<svg width="752pt" height="752pt" version="1.1" viewBox="0 0 752 752" xmlns="http://www.w3.org/2000/svg">
 <defs>
  <clipPath id="b">
   <path d="m141 139.21h470v470.79h-470z"/>
  </clipPath>
  <clipPath id="a">
   <path d="m438 436h171v176.79h-171z"/>
  </clipPath>
 </defs>
 <g>
  <g clip-path="url(#b)">
   <path d="m376 139.21c129.77 0 234.96 105.19 234.96 234.95 0 39.176-9.5938 76.094-26.547 108.57l-16.75-7.6602c14.562-27.586 23.332-58.691 24.715-91.707h-104.51c-0.32031 18.02-1.6133 35.984-3.8672 53.492l-17.531-8.0039c1.7148-14.934 2.7266-30.184 3.0078-45.488h-84.277v65.953c13.09 0.37109 26.164 1.6133 39.086 3.7266l7.0039 19.914c-15.188-3.0469-30.621-4.8164-46.09-5.2891v121.96c20.914-5.0078 40.172-26.855 55.082-59.625 2.1133-4.6367 4.1094-9.4375 5.9922-14.367l9.0156 25.703c-8.3633 17.57-18.121 32.297-28.93 43.504 13.703-3.2656 26.895-7.8359 39.445-13.562l6.1211 17.43c-29.289 13.113-61.754 20.414-95.922 20.414-129.75 0-234.96-105.19-234.96-234.96 0-129.75 105.2-234.95 234.96-234.95zm-216.38 225.75h104.51c0.52344-28.762 3.4961-57.348 8.9141-84.188-25.344-9.4766-48.676-22.336-69.258-37.934-26.086 34.156-42.25 76.301-44.168 122.12zm122.9 0h84.277v-65.902c-25.793-0.79297-51.496-4.918-76.199-12.359-4.8906 24.961-7.582 51.531-8.082 78.262zm102.67 0h84.277c-0.5-26.727-3.1875-53.301-8.082-78.262-24.703 7.4414-50.395 11.562-76.199 12.359v65.902zm102.67 0h104.51c-1.9219-45.82-18.07-87.969-44.168-122.12-20.578 15.598-43.914 28.469-69.258 37.934 5.418 26.844 8.3867 55.426 8.9141 84.188zm-121.06 18.402h-84.277c0.5 26.918 3.2383 53.672 8.1836 78.785 24.691-7.6445 50.344-11.91 76.094-12.781zm-102.67 0h-104.51c1.9219 45.871 18.109 88.059 44.246 122.22 20.898-14.996 44.156-27.789 69.309-37.383-5.5078-27.023-8.5156-55.848-9.043-84.844zm102.67 84.367c-24.434 0.88281-48.754 5.0078-72.102 12.383 4.457 17.918 10.129 34.742 17.02 49.883 14.906 32.773 34.168 54.621 55.082 59.625zm-89.504 18.531c-22.27 8.7344-42.941 20.145-61.648 33.449 28.801 31.723 66.902 54.852 110 65.121-11.562-11.988-21.91-28.008-30.66-47.23-7.1328-15.664-13.023-32.965-17.688-51.34zm-61.777-257.52c18.402 13.855 39.137 25.355 61.613 34 4.6875-18.633 10.629-36.164 17.852-52.02 8.7461-19.223 19.094-35.242 30.66-47.23-43.145 10.285-81.297 33.465-110.12 65.25zm79.055 40.02c23.309 7.1445 47.715 11.117 72.227 11.91v-121.97c-20.914 5.0078-40.172 26.855-55.082 59.625-6.9531 15.289-12.664 32.312-17.148 50.43zm90.617 11.91c24.523-0.79297 48.922-4.7656 72.227-11.91-4.4688-18.121-10.18-35.141-17.148-50.43-14.906-32.773-34.168-54.621-55.082-59.625v121.97zm89.684-17.93c22.477-8.6445 43.207-20.145 61.598-34-28.828-31.785-66.965-54.965-110.12-65.25 11.562 11.988 21.926 28.008 30.66 47.23 7.2227 15.855 13.164 33.387 17.863 52.02z"/>
  </g>
  <g clip-path="url(#a)">
   <path d="m438.19 436.41 170.05 77.672-49.883 25.098 33.324 36.488-28.715 26.227-33.32-36.5-29.52 47.398z" fill-rule="evenodd"/>
  </g>
 </g>
</svg>
