<?xml version="1.0" encoding="UTF-8"?>
<svg width="752pt" height="752pt" version="1.1" viewBox="0 0 752 752" xmlns="http://www.w3.org/2000/svg">
 <g>
  <path d="m375.05 307.33c-19.891 0-37.414 12.312-43.57 31.258-1.4219 3.7891 0.94531 7.5781 4.2617 8.9961 3.7891 1.4219 7.5781-0.94531 8.9961-4.2617 4.2617-12.785 16.574-21.312 30.309-21.312 17.523 0 31.73 14.207 31.73 31.73 0 7.5781-6.6289 17.523-13.734 28.414-10.891 16.102-24.152 35.992-24.152 60.617 0 3.7891 3.3164 7.1055 7.1055 7.1055s7.1055-3.3164 7.1055-7.1055c0-20.363 11.367-37.414 21.785-52.566 8.5234-13.262 16.102-24.152 16.102-36.465 0-25.574-20.84-46.41-45.938-46.41z"/>
  <path d="m385.47 473.09c0 5.2305-4.2383 9.4727-9.4727 9.4727-5.2305 0-9.4688-4.2422-9.4688-9.4727 0-5.2305 4.2383-9.4727 9.4688-9.4727 5.2344 0 9.4727 4.2422 9.4727 9.4727"/>
  <path d="m376 235.35c-65.355 0-112.24 48.305-112.24 115.08 0 38.832 17.523 63.934 32.676 85.719 11.84 17.051 21.785 31.73 21.785 49.254 0 23.207 38.359 33.152 57.777 33.152s57.777-9.9453 57.777-33.152c0-17.996 10.418-32.676 21.785-49.254 15.156-21.785 32.676-46.883 32.676-85.719 0-66.305-46.883-115.08-112.24-115.08zm68.195 192.75c-12.785 17.996-24.625 35.047-24.625 57.305 0 9.4727-25.102 18.941-43.57 18.941s-43.57-9.4727-43.57-18.941c0-22.258-11.84-39.309-24.625-57.305-14.68-21.312-30.309-43.098-30.309-77.668 0-58.25 41.203-100.87 98.031-100.87s98.031 42.621 98.031 100.87c0.47266 34.574-14.68 56.359-29.363 77.668z"/>
  <path d="m324.86 528.02c13.734 9.9453 30.309 14.68 51.621 14.68 20.836 0 37.414-4.7344 51.148-14.68 3.3164-2.3672 3.7891-6.6289 1.4219-9.9453-2.3672-3.3164-6.6289-3.7891-9.9453-1.4219-10.891 8.0508-25.102 11.84-42.621 11.84-17.996 0-31.73-3.7891-43.098-11.84-3.3164-2.3672-7.5781-1.4219-9.9453 1.4219-2.8438 3.3164-1.8984 7.5781 1.418 9.9453z"/>
  <path d="m419.1 541.75c-12.785 8.9961-28.887 10.418-42.621 10.418-19.891 0-32.676-3.3164-43.098-10.891-3.3164-2.3672-7.5781-1.4219-9.9453 1.4219-2.3672 3.3164-1.4219 7.5781 1.4219 9.9453 7.5781 5.2109 15.156 8.5234 23.207 10.418 1.4219 14.207 13.734 25.574 28.414 25.574 14.68 0 26.992-11.367 28.414-25.574 8.0508-1.8945 15.629-5.2109 22.73-10.418 3.3164-2.3672 3.7891-6.6289 1.4219-9.9453-2.3672-3.3164-7.1055-3.3164-9.9453-0.94922zm-43.098 33.152c-6.1562 0-10.891-3.7891-13.262-8.9961 4.2617 0.47266 8.9961 0.47266 13.262 0.47266 4.2617 0 8.5234 0 13.262-0.47266-1.8945 5.207-7.1055 8.9961-13.262 8.9961z"/>
  <path d="m370.79 268.5c-0.47266-3.7891-4.2617-6.6289-8.0508-5.6836-21.785 3.7891-38.832 14.207-53.988 33.625-2.3672 3.3164-1.8945 7.5781 0.94531 9.9453 1.4219 0.94531 2.8398 1.4219 4.2617 1.4219 1.8945 0 4.2617-0.94531 5.6836-2.8398 12.785-16.102 26.992-25.102 45.465-28.414 3.7891-0.95313 6.1562-4.2656 5.6836-8.0547z"/>
  <path d="m366.53 209.77c0 2.3672 0.94531 4.7344 2.8398 6.6289 1.8945 1.8945 4.2617 2.8398 6.6289 2.8398s4.7344-0.94531 6.6289-2.8398c1.8945-1.8945 2.8398-4.2617 2.8398-6.6289 0-2.3672-0.94531-5.2109-2.8398-6.6289-1.4219-1.4219-3.7891-2.3672-5.6836-2.3672 4.7344-0.47266 8.5234-4.2617 8.5234-9.4727 0-4.7344-3.3164-8.5234-8.0508-9.4727 1.8945-0.47266 3.7891-1.4219 5.2109-2.8398 1.8984-1.8945 2.8438-4.2617 2.8438-6.6289 0-2.3672-0.94531-4.7344-2.8398-6.6289-3.3164-3.7891-9.9453-3.7891-13.262 0-1.8945 1.8906-2.8398 4.2578-2.8398 6.6289 0 2.3672 0.94531 4.7344 2.8398 6.6289 1.4219 1.4219 3.3164 2.3672 5.2109 2.8398-4.7344 0.47266-8.0508 4.7344-8.0508 9.4727 0 4.7344 3.7891 8.9961 8.5234 9.4727-2.3672 0-4.2617 0.94531-5.6836 2.3672-1.8945 1.4219-2.8398 3.7891-2.8398 6.6289z"/>
  <path d="m277.97 210.72c1.4219 0 2.8398-0.47266 3.7891-0.94531-3.3164 2.8398-4.2617 8.0508-1.4219 12.312 1.8945 2.8398 4.7344 4.2617 8.0508 4.2617 1.4219 0 2.8398-0.47266 4.2617-0.94531l-0.47266 0.47266c-1.8945 1.8945-2.8398 4.2617-2.8398 6.6289 0 2.3672 0.94531 4.7344 2.8398 6.6289s4.2617 2.8398 6.6289 2.8398c2.3672 0 4.7344-0.94531 6.6289-2.8398 1.8945-1.8945 2.8398-4.2617 2.8398-6.6289 0-2.3672-0.94531-4.7344-2.8398-6.6289-2.8398-2.8398-7.1055-3.3164-10.891-1.8945 3.3164-2.8398 4.2617-8.0508 1.8945-12.312-2.8398-3.7891-7.5781-5.2109-11.84-3.3164 0 0 0.47266 0 0.47266-0.47266 1.8945-1.8945 2.8398-4.2617 2.8398-6.6289 0-2.3672-0.94531-4.7344-2.8398-6.6289-3.7891-3.3164-9.9453-3.3164-13.262 0-1.8945 1.8945-2.8398 4.2617-2.8398 6.6289 0 2.3672 0.94531 4.7344 2.8398 6.6289 1.4258 1.8906 3.793 2.8398 6.1602 2.8398z"/>
  <path d="m212.14 288.39c2.3672 0 4.7344-0.94531 6.6289-2.8398 0.47266-0.47266 0.94531-0.94531 1.4219-1.4219-0.94531 4.2617 0.94531 8.9961 5.2109 10.891 1.4219 0.47266 2.3672 0.94531 3.7891 0.94531 3.3164 0 6.1562-1.8945 8.0508-4.7344-0.47266 0.94531-0.47266 1.8945-0.47266 2.8398 0 2.3672 0.94531 5.2109 2.8398 6.6289 1.8945 1.8945 4.2617 2.8398 6.6289 2.8398 2.3672 0 4.7344-0.94531 6.6289-2.8398 1.8945-1.8945 2.8398-4.2617 2.8398-6.6289 0-2.3672-0.94531-4.7344-2.8398-6.6289-3.7891-3.7891-9.9453-3.7891-13.262 0-0.47266 0.47266-0.94531 0.94531-1.4219 1.4219 0.94531-4.2617-0.94531-8.9961-5.2109-10.891-4.2617-1.8945-9.4727-0.47266-11.84 3.3164 0-0.94531 0.47266-1.4219 0.47266-2.3672 0-2.3672-0.94531-4.7344-2.8398-6.6289-3.3164-3.7891-9.9453-3.7891-13.262 0-1.8945 1.8945-2.8398 4.2617-2.8398 6.6289s0.94531 4.7344 2.8398 6.6289c1.4297 1.8906 3.7969 2.8398 6.6367 2.8398z"/>
  <path d="m235.35 383.58c2.3672 0 4.7344-0.94531 6.6289-2.8398 1.8945-1.8945 2.8398-4.2617 2.8398-6.6289s-0.94531-4.7344-2.8398-6.6289c-3.7891-3.3164-9.9453-3.3164-13.262 0-1.8945 1.8945-2.8398 4.2617-2.8398 6.6289-1.4219-4.2617-5.6836-7.1055-10.418-6.1562-4.7344 0.94531-8.0508 4.7344-8.0508 9.4727-0.47266-1.4219-1.4219-2.8398-2.3672-3.7891-3.7891-3.7891-9.9453-3.7891-13.262 0-1.8945 1.8945-2.8398 4.2617-2.8398 6.6289s0.94531 4.7344 2.8398 6.6289c1.8945 1.8945 4.2617 2.8398 6.6289 2.8398s4.7344-0.94531 6.6289-2.8398c1.8945-1.8945 2.8398-3.7891 2.8398-6.6289 1.4219 3.7891 4.7344 6.1562 8.9961 6.1562h1.4219c4.7344-0.94531 8.0508-4.7344 8.0508-9.4727 0.47266 1.4219 1.4219 2.8398 2.3672 3.7891 1.9023 1.8945 4.2695 2.8398 6.6367 2.8398z"/>
  <path d="m263.76 440.41c-1.8945 1.8945-2.8398 4.2617-2.8398 6.6289 0 1.8945 0.47266 3.7891 1.4219 5.2109-3.7891-2.8398-8.5234-2.8398-12.312 0.47266-3.7891 3.3164-4.2617 8.5234-1.4219 12.312-3.7891-2.8398-9.4727-2.8398-12.785 0.47266-1.8945 1.8945-2.8398 4.2617-2.8398 6.6289 0 2.3672 0.94531 4.7344 2.8398 6.6289s4.2617 2.8398 6.6289 2.8398 4.7344-0.94531 6.6289-2.8398 2.8398-4.2617 2.8398-6.6289c0-1.8945-0.47266-3.7891-1.4219-5.2109 1.8945 1.4219 3.7891 2.3672 6.1562 2.3672s4.2617-0.94531 6.1562-2.3672c3.3164-3.3164 4.2617-8.5234 1.4219-12.312 1.8945 1.4219 3.7891 2.3672 6.1562 2.3672s4.7344-0.94531 6.6289-2.8398 2.8398-4.2617 2.8398-6.6289c0-2.3672-0.94531-4.7344-2.8398-6.6289-3.3125-3.7891-9.9414-3.7891-13.258-0.47266z"/>
  <path d="m453.2 241.98c2.3672 0 4.7344-0.94531 6.6289-2.8398s2.8398-4.2617 2.8398-6.6289c0-2.3672-0.94531-4.7344-2.8398-6.6289l-0.47266-0.47266c1.4219 0.47266 2.8398 0.94531 4.2617 0.94531 3.3164 0 6.1562-1.4219 8.0508-4.2617 2.3672-3.7891 1.8945-8.9961-1.8945-12.312 1.4219 0.47266 2.3672 0.94531 3.7891 0.94531 2.3672 0 4.7344-0.94531 6.6289-2.8398 1.8945-1.8945 2.8398-4.2617 2.8398-6.6289 0-2.3672-0.94531-4.7344-2.8398-6.6289-3.3164-3.7891-9.9453-3.7891-13.262 0-1.8945 1.8945-2.8398 4.2617-2.8398 6.6289 0 2.3672 0.94531 4.7344 2.8398 6.6289 0 0 0.47266 0 0.47266 0.47266-4.2617-1.8945-8.9961-0.47266-11.84 3.3164-2.8398 3.7891-1.8945 9.4727 1.8945 12.312-3.3164-1.4219-8.0508-0.94531-10.891 1.8945-1.8945 1.8945-2.8398 4.2617-2.8398 6.6289 0 2.3672 0.94531 4.7344 2.8398 6.6289 1.8984 1.8945 4.2656 2.8398 6.6328 2.8398z"/>
  <path d="m505.76 303.07c2.3672 0 4.7344-0.94531 6.6289-2.8398s2.8398-4.2617 2.8398-6.6289c0-0.94531 0-1.8945-0.47266-2.8398 1.8945 2.8398 4.7344 4.7344 8.0508 4.7344 1.4219 0 2.3672 0 3.7891-0.94531 4.2617-1.8945 6.6289-6.6289 5.2109-10.891 0.47266 0.47266 0.94531 0.94531 0.94531 1.4219 1.8945 1.8945 4.2617 2.8398 6.6289 2.8398 2.3672 0 4.7344-0.94531 6.6289-2.8398s2.8398-4.2617 2.8398-6.6289-0.94531-4.7344-2.8398-6.6289c-3.7891-3.3164-9.9453-3.3164-13.262 0-1.8945 1.8945-2.8398 4.2617-2.8398 6.6289 0 0.94531 0 1.8945 0.47266 2.3672-2.3672-3.7891-7.5781-5.6836-11.84-3.7891s-6.6289 6.6289-5.2109 10.891c-0.47266-0.47266-0.94531-0.94531-0.94531-1.4219-3.7891-3.7891-9.9453-3.7891-13.262 0-1.8945 1.8945-2.8398 4.2617-2.8398 6.6289 0 2.3672 0.94531 4.7344 2.8398 6.6289 1.9023 2.3633 4.2695 3.3125 6.6367 3.3125z"/>
  <path d="m559.75 373.16c-3.3164-3.7891-9.9453-3.7891-13.262 0-0.94531 0.94531-1.8945 2.3672-2.3672 3.7891 0-4.7344-3.3164-8.5234-8.0508-9.4727-4.7344-0.94531-8.9961 1.8945-10.418 6.6289 0-2.3672-0.94531-4.7344-2.8398-6.6289-3.7891-3.3164-9.9453-3.3164-13.262 0-1.8945 1.8945-2.8398 4.2617-2.8398 6.6289 0 2.3672 0.94531 4.7344 2.8398 6.6289s4.2617 2.8398 6.6289 2.8398c2.3672 0 4.7344-0.94531 6.6289-2.8398 0.94531-0.94531 1.8945-2.3672 2.3672-3.7891 0 4.7344 3.3164 8.5234 8.0508 9.4727h1.4219c4.2617 0 7.5781-2.3672 8.9961-6.1562 0 2.3672 0.94531 4.7344 2.8398 6.6289s4.2617 2.8398 6.6289 2.8398c2.3672 0 4.7344-0.94531 6.6289-2.8398 1.8945-1.8945 2.8398-4.2617 2.8398-6.6289 0.011719-2.8398-0.9375-5.207-2.832-7.1016z"/>
  <path d="m503.39 464.56c2.8398-3.7891 2.3672-8.9961-1.4219-12.312-3.3164-3.3164-8.5234-3.3164-12.312-0.47266 0.94531-1.4219 1.4219-3.3164 1.4219-5.2109 0-2.3672-0.94531-4.7344-2.8398-6.6289-3.3164-3.3164-9.9453-3.3164-13.262 0-1.8945 1.8945-2.8398 4.2617-2.8398 6.6289 0 2.3672 0.94531 4.7344 2.8398 6.6289 1.8945 1.8945 4.2617 2.8398 6.6289 2.8398s4.2617-0.94531 6.1562-2.3672c-2.3672 3.7891-1.8945 8.9961 1.4219 12.312 1.8945 1.4219 4.2617 2.3672 6.1562 2.3672s4.2617-0.94531 6.1562-2.3672c-0.94531 1.4219-1.4219 3.3164-1.4219 5.2109 0 2.3672 0.94531 4.7344 2.8398 6.6289 1.8945 1.8945 4.2617 2.8398 6.6289 2.8398s4.7344-0.94531 6.6289-2.8398c1.8945-1.8945 2.8398-4.2617 2.8398-6.6289 0-2.3672-0.94531-4.7344-2.8398-6.6289-3.3086-2.8438-8.9922-2.8438-12.781 0z"/>
 </g>
</svg>
