<?xml version="1.0" encoding="UTF-8"?>
<svg width="752pt" height="752pt" version="1.1" viewBox="0 0 752 752" xmlns="http://www.w3.org/2000/svg">
 <g>
  <path d="m570.95 157.15h-389.47c-5.5117 0-10.695 2.1445-14.602 6.0391-3.9102 3.8984-6.0664 9.0781-6.0664 14.586 0 11.391 9.2695 20.656 20.668 20.656h9.2461v252.39c0 3.5742 2.8984 6.4766 6.4766 6.4766h172.53v69.715c-15.859 3.0352-27.887 17.004-27.887 33.734 0 18.926 15.414 34.32 34.359 34.32 18.957 0 34.379-15.395 34.379-34.32 0-16.73-12.031-30.699-27.902-33.734v-69.715h172.55c3.5742 0 6.4766-2.8984 6.4766-6.4766l-0.003906-252.39h9.2461c11.398 0 20.672-9.2656 20.672-20.656-0.003906-11.375-9.2734-20.625-20.672-20.625zm-173.32 403.6c0 11.785-9.6133 21.371-21.426 21.371-11.805 0-21.41-9.5859-21.41-21.371 0-11.805 9.6055-21.406 21.41-21.406 11.812 0 21.426 9.6016 21.426 21.406zm151.12-116.4h-345.08v-245.92h345.08zm22.195-258.87h-389.47c-4.2539 0-7.7188-3.457-7.7188-7.707 0-2.0391 0.80078-3.9609 2.2578-5.4141 1.4609-1.457 3.4023-2.2578 5.4609-2.2578h389.47c4.2578 0 7.7188 3.4414 7.7188 7.6758 0 4.2461-3.4609 7.7031-7.7188 7.7031z"/>
  <path d="m368.56 404.21c0.34766 0 0.69922 0 1.043-0.007813 20.414-0.25781 39.512-8.4492 53.766-23.066s21.957-33.902 21.688-54.301c-0.046875-3.5742-2.9883-6.4141-6.5586-6.3906l-63.508 0.82031-0.82031-63.438c-0.023437-1.7188-0.72656-3.3555-1.957-4.5547-1.2305-1.1992-2.8711-1.8828-4.6055-1.8359-42.152 0.57031-75.996 35.293-75.449 77.406 0.26562 20.219 8.3438 39.172 22.75 53.371 14.398 14.184 33.453 21.996 53.652 21.996zm-7.2461-139.41 0.8125 63.105c0.046875 3.5469 2.9375 6.3906 6.4727 6.3906h0.085938l63.184-0.8125c-1.2734 14.512-7.457 28.035-17.773 38.617-11.84 12.141-27.699 18.945-44.664 19.16-34.945 0.44531-63.867-27.781-64.32-62.582-0.42578-32.797 24.262-60.195 56.203-63.879z"/>
  <path d="m386.21 313.88c1.2109 1.1797 2.832 1.8359 4.5195 1.8359h0.085937l69.984-0.9375c3.5742-0.046876 6.4336-2.9844 6.3867-6.5586-0.25781-20.191-8.3242-39.137-22.719-53.348-14.406-14.223-33.488-22.055-53.738-22.055-0.28516 0-0.55859 0.011719-0.82812 0.027344l-0.074219 0.007812c-1.7305 0-3.3906 0.69531-4.6055 1.9258-1.2148 1.2344-1.8906 2.9023-1.8672 4.6328l0.90234 69.91c0.019532 1.7227 0.72266 3.3594 1.9531 4.5586zm67.613-11.957-56.703 0.75781-0.73047-56.656c29.832 2.6719 53.992 26.254 57.434 55.898z"/>
 </g>
</svg>
